# ProBuilder 5.1.1
# https://unity3d.com/unity/features/worldbuilding/probuilder
# 2024-09-12 오후 1:32:42

mtllib ./Cylinder.mtl
o Cylinder

g Cylinder
v -0.3658903 -1.685851 -0.8884244
v 0.3058898 -1.685851 -0.8884244
v 0.3058898 -1.264171 -1.689884
v -0.3658903 -1.264171 -1.689884
v 0.3058898 -0.607389 -2.325925
v -0.3658903 -0.6073887 -2.325925
v 0.3058899 0.2202051 -2.734289
v -0.3658901 0.2202052 -2.734289
v 0.30589 1.1376 -2.875001
v -0.36589 1.1376 -2.875001
v 0.3058901 2.054995 -2.734289
v -0.3658899 2.054995 -2.734289
v 0.3058903 2.882588 -2.325925
v -0.3658898 2.882588 -2.325925
v 0.3058903 3.53937 -1.689883
v -0.3658898 3.53937 -1.689883
v 0.3058903 3.96105 -0.888424
v -0.3658898 3.96105 -0.888424
v 0.3058903 4.106351 0
v -0.3658898 4.106351 0
v 0.3058903 3.96105 0.888424
v -0.3658898 3.96105 0.888424
v 0.3058903 3.53937 1.689883
v -0.3658898 3.53937 1.689883
v 0.3058903 2.882588 2.325924
v -0.3658898 2.882588 2.325924
v 0.3058901 2.054994 2.734288
v -0.3658899 2.054995 2.734288
v 0.30589 1.1376 2.875
v -0.36589 1.1376 2.875
v 0.3058899 0.2202057 2.734288
v -0.3658901 0.2202058 2.734288
v 0.3058898 -0.6073878 2.325924
v -0.3658903 -0.6073878 2.325924
v 0.3058898 -1.264169 1.689883
v -0.3658903 -1.264169 1.689883
v 0.3058898 -1.685849 0.8884239
v -0.3658903 -1.685849 0.8884239
v 0.3058898 -1.83115 0
v -0.3658903 -1.83115 0

vt 0.1005999 0.0004537381
vt 0.1005996 0.9994308
vt 0.2005053 0.9994308
vt 0.2005054 0.0004537381
vt 0.300411 0.9994308
vt 0.300411 0.0004537381
vt 0.4003165 0.9994308
vt 0.4003165 0.0004537381
vt 0.500222 0.9994308
vt 0.500222 0.0004537381
vt 0.6001273 0.9994308
vt 0.6001273 0.0004537381
vt 0.7000328 0.9994308
vt 0.7000327 0.0004537381
vt 0.7999381 0.9994308
vt 0.799938 0.0004537381
vt 0.8998435 0.9994308
vt 0.8998432 0.0004537381
vt 0.9997491 0.9994308
vt 0.999749 0.0004537381
vt 0.0006936856 0.0004537381
vt 0.0006940446 0.9994308

vn 0 -0.9482156 -0.3176273
vn 0 -0.8003665 -0.599511
vn -1.419596E-07 -0.5760345 -0.8174254
vn -7.319973E-08 -0.3005689 -0.9537601
vn -6.804549E-09 1.507543E-07 -1
vn 9.306275E-08 0.3005693 -0.95376
vn 3.974067E-08 0.5760348 -0.8174251
vn 0 0.8003665 -0.5995109
vn 0 0.9482153 -0.3176283
vn 0 1 0
vn 0 0.9482152 0.3176284
vn 0 0.8003663 0.5995112
vn 1.419597E-07 0.5760347 0.8174253
vn 1.066737E-07 0.3005691 0.9537601
vn 6.804517E-09 -1.432165E-07 1
vn -5.333684E-08 -0.3005691 0.9537601
vn -1.987033E-08 -0.5760347 0.8174253
vn 0 -0.8003665 0.599511
vn 0 -0.9482153 0.3176283
vn 0 -1 9.58795E-07

usemtl BrightOrange
f 4/4/2 3/3/2 2/2/1 1/1/1
f 6/6/3 5/5/3 3/3/2 4/4/2
f 8/8/4 7/7/4 5/5/3 6/6/3
f 10/10/5 9/9/5 7/7/4 8/8/4
f 12/12/6 11/11/6 9/9/5 10/10/5
f 14/14/7 13/13/7 11/11/6 12/12/6
f 16/16/8 15/15/8 13/13/7 14/14/7
f 18/18/9 17/17/9 15/15/8 16/16/8
f 20/20/10 19/19/10 17/17/9 18/18/9
f 22/1/11 21/2/11 19/22/10 20/21/10
f 24/4/12 23/3/12 21/2/11 22/1/11
f 26/6/13 25/5/13 23/3/12 24/4/12
f 28/8/14 27/7/14 25/5/13 26/6/13
f 30/10/15 29/9/15 27/7/14 28/8/14
f 32/12/16 31/11/16 29/9/15 30/10/15
f 34/14/17 33/13/17 31/11/16 32/12/16
f 36/16/18 35/15/18 33/13/17 34/14/17
f 38/18/19 37/17/19 35/15/18 36/16/18
f 40/20/20 39/19/20 37/17/19 38/18/19
f 1/1/1 2/2/1 39/22/20 40/21/20

